<svg xmlns="http://www.w3.org/2000/svg" width="256" height="256" viewBox="0 0 256 256">
  <defs>
    <linearGradient id="bg" x1="0" y1="0" x2="1" y2="1">
      <stop offset="0" stop-color="#22c55e"/>
      <stop offset="1" stop-color="#06b6d4"/>
    </linearGradient>
  </defs>
  <rect width="256" height="256" rx="48" fill="url(#bg)"/>
  <circle cx="128" cy="132" r="72" fill="#f5d0b5"/>
  <path d="M52 124c8-48 44-80 76-80s68 32 76 80c-18-18-42-28-76-28s-58 10-76 28z" fill="#111827"/>
  <path d="M70 92c18-26 44-40 58-40 22 0 44 10 58 40-20-18-40-24-58-24s-38 6-58 24z" fill="#0b1220" opacity=".95"/>
  <ellipse cx="102" cy="140" rx="11" ry="15" fill="#0f172a"/>
  <ellipse cx="154" cy="140" rx="11" ry="15" fill="#0f172a"/>
  <path d="M108 176c10 6 30 6 40 0" fill="none" stroke="#7c2d12" stroke-width="6" stroke-linecap="round"/>
  <circle cx="86" cy="160" r="10" fill="#fb7185" opacity=".35"/>
  <circle cx="170" cy="160" r="10" fill="#fb7185" opacity=".35"/>
</svg>
