<svg xmlns="http://www.w3.org/2000/svg" width="256" height="256" viewBox="0 0 256 256">
  <defs>
    <linearGradient id="bg" x1="0" y1="0" x2="1" y2="1">
      <stop offset="0" stop-color="#fb7185"/>
      <stop offset="1" stop-color="#f59e0b"/>
    </linearGradient>
  </defs>
  <rect width="256" height="256" rx="48" fill="url(#bg)"/>
  <circle cx="128" cy="132" r="72" fill="#f7d7c4"/>
  <path d="M54 120c10-54 52-88 74-88s64 34 74 88c-12-18-30-30-74-30s-62 12-74 30z" fill="#111827"/>
  <path d="M64 104c12-32 34-54 64-54s52 22 64 54c-12-24-34-40-64-40s-52 16-64 40z" fill="#0f172a"/>
  <ellipse cx="104" cy="142" rx="10" ry="14" fill="#111827"/>
  <ellipse cx="152" cy="142" rx="10" ry="14" fill="#111827"/>
  <path d="M118 170c6 8 14 8 20 0" fill="none" stroke="#9a3412" stroke-width="6" stroke-linecap="round"/>
  <path d="M86 118c10-10 22-10 32 0" fill="none" stroke="#0b1220" stroke-width="6" stroke-linecap="round" opacity=".6"/>
  <path d="M138 118c10-10 22-10 32 0" fill="none" stroke="#0b1220" stroke-width="6" stroke-linecap="round" opacity=".6"/>
</svg>
